<?xml version="1.0" encoding="UTF-8"?>
<svg id="Layer_2" xmlns="http://www.w3.org/2000/svg" viewBox="0 0 48 48">
  <defs>
    <style>
      .cls-1 {
        fill: #fff;
      }
    </style>
  </defs>
  <g id="_x2D_-production">
    <g id="logomark.square.black">
      <path class="cls-1" d="M47.87,9.58c-.05-.39-.13-.77-.23-1.15-.19-.74-.46-1.45-.79-2.14-.15-.3-.31-.6-.5-.88-.36-.6-.77-1.16-1.24-1.69C43.03,1.43,40.05,0,36.73,0H11.26C5.04,0,0,5.05,0,11.27v25.48C0,42.96,5.04,48,11.26,48h25.47c6.22,0,11.27-5.04,11.27-11.26V11.27c0-.57-.04-1.13-.13-1.69ZM47,36.74c0,5.66-4.61,10.25-10.26,10.25H11.26c-5.66,0-10.25-4.6-10.25-10.25V11.27C1,5.61,5.6,1,11.26,1h25.47c3.04,0,5.77,1.33,7.66,3.43l-22.85,22.86-8.62-8.62-1.46,1.46,14.4,14.4,1.46-1.47-4.31-4.31L45.61,6.14c.18.29.33.6.47.91l-21.69,21.7,3.62,3.62,1.46-1.46-2.16-2.16,19.47-19.48c.08.4.14.8.17,1.21l-18.26,18.27,1.46,1.46,16.83-16.84v23.36ZM15.77,15.82l7.93,7.93,1.46-1.48-7.93-7.92-1.46,1.46ZM13.62,17.98l7.92,7.93,1.47-1.48-7.93-7.92-1.46,1.47ZM6.67,35.12V12.88c0-3.42,2.78-6.2,6.2-6.2h20.79v-2.08H12.87c-4.56,0-8.28,3.71-8.28,8.28v22.23c0,4.57,3.72,8.29,8.28,8.29h22.24c4.57,0,8.28-3.72,8.28-8.29v-3.51h-2.08v3.51c0,3.42-2.78,6.21-6.2,6.21H12.87c-3.42,0-6.2-2.79-6.2-6.21Z"/>
    </g>
  </g>
</svg>