<?xml version="1.0" encoding="UTF-8"?>
<svg id="Layer_2" xmlns="http://www.w3.org/2000/svg" xmlns:xlink="http://www.w3.org/1999/xlink" viewBox="0 0 76.79 94.21">
  <defs>
    <style>
      .cls-1 {
        fill: url(#radial-gradient);
      }

      .cls-2 {
        fill: #fff;
      }

      .cls-3 {
        fill: #131517;
      }
    </style>
    <radialGradient id="radial-gradient" cx="62.86" cy="-.95" fx="62.86" fy="-.95" r="64.84" gradientUnits="userSpaceOnUse">
      <stop offset="0" stop-color="#9f42c6"/>
      <stop offset=".27" stop-color="#a041c3"/>
      <stop offset=".42" stop-color="#a43ebb"/>
      <stop offset=".53" stop-color="#aa39ad"/>
      <stop offset=".64" stop-color="#b4339a"/>
      <stop offset=".73" stop-color="#c02b81"/>
      <stop offset=".82" stop-color="#cf2061"/>
      <stop offset=".9" stop-color="#e1143c"/>
      <stop offset=".97" stop-color="#f50613"/>
      <stop offset="1" stop-color="red"/>
    </radialGradient>
  </defs>
  <g id="_x2D_-production">
    <g id="logo.tagline.tall.positive">
      <g id="logotype.white">
        <path class="cls-3" d="M7.71,55.34h-3.67l-1.06,6.42H0v4.21h4.06c-.36.1-.63.33-.83.69s-.3.76-.3,1.2l.02,11.34c0,1.7.49,3,1.48,3.91.98.91,2.37,1.36,4.14,1.36.75,0,1.55,0,2.39-.03.84-.02,1.62-.1,2.35-.24v-4.12c-.42.01-.9.02-1.42.03-.52,0-1.09.01-1.7.01-.96,0-1.61-.16-1.96-.47s-.52-.87-.52-1.66v-12.02h5.64v-4.21h-5.64v-6.42ZM25.99,61.29c-1.12,0-2.08.24-2.87.71-.79.47-1.44,1.1-1.93,1.88-.49.78-.88,1.63-1.15,2.56-.12.4-.21.79-.29,1.18l-.36-5.86h-4.14v22.38h4.84v-15.02c.23-.63.61-1.16,1.13-1.58.52-.42,1.09-.74,1.7-.95.62-.21,1.19-.32,1.72-.32.45,0,.94.02,1.46.06.52.04,1.01.14,1.48.31v-5.17c-.23-.07-.48-.12-.75-.14-.27-.03-.54-.04-.83-.04ZM43.47,63.01c-.78-.61-1.68-1.04-2.69-1.29-1.01-.25-2.08-.38-3.2-.38-1.92,0-3.57.29-4.97.88s-2.45,1.5-3.16,2.74c-.7,1.24-.98,2.82-.83,4.75h4.41c.03-1.18.2-2.08.52-2.7.32-.62.8-1.05,1.43-1.28s1.41-.35,2.34-.35c1.45,0,2.48.38,3.09,1.14s.91,1.9.91,3.44v.92c-.45.03-1.1.08-1.94.15-.84.08-1.75.17-2.72.29s-1.89.27-2.75.46c-1.26.26-2.34.65-3.24,1.18-.9.53-1.59,1.22-2.07,2.07s-.72,1.94-.72,3.25c0,1.2.3,2.27.89,3.19.6.92,1.42,1.64,2.48,2.15,1.06.51,2.26.77,3.6.77,1.93,0,3.42-.5,4.48-1.5,1.06-1,1.72-2.25,1.98-3.75l-.06,5h4.74v-14.65c0-1.61-.23-2.95-.68-4-.45-1.05-1.07-1.88-1.85-2.49ZM41.31,77.66c-.14.63-.48,1.18-1.04,1.64-.55.46-1.2.82-1.94,1.06-.74.24-1.46.36-2.17.36-.53.01-1.03-.1-1.5-.34-.46-.24-.84-.58-1.13-1.01s-.43-.96-.43-1.56c0-1.07.34-1.86,1.03-2.37.68-.51,1.79-.92,3.32-1.22.53-.12,1.17-.25,1.92-.38.75-.13,1.39-.22,1.94-.28v4.1ZM76.79,65.97v-4.21h-5.64v-6.42h-3.67l-1.06,6.42h-1.41,0s-5.73,0-5.73,0l-5.53,7.79-1.71,2.97v-10.76h-4.9v22.39h4.9v-6.25l2.49-3.12,5.4,9.37h5.84l-7.81-12.75,5.48-7.49v2.07h4.06c-.36.1-.63.33-.83.69s-.3.76-.3,1.2l.02,11.34c0,1.7.49,3,1.48,3.91.98.91,2.37,1.36,4.14,1.36.75,0,1.55,0,2.39-.03.84-.02,1.62-.1,2.35-.24v-4.12c-.42.01-.9.02-1.42.03-.52,0-1.09.01-1.7.01-.96,0-1.61-.16-1.96-.47s-.52-.87-.52-1.66v-12.02h5.64Z"/>
      </g>
      <g id="taglinewide.white">
        <path class="cls-3" d="M4.86,87.7v2.57c-.03-.09-.06-.18-.12-.28-.09-.13-.22-.24-.39-.33-.17-.09-.38-.13-.64-.13-.33,0-.62.09-.9.27-.27.18-.49.44-.65.79-.16.34-.24.77-.24,1.27,0,.46.07.87.2,1.21.13.35.33.62.58.82.26.2.57.3.94.3.21,0,.38-.03.52-.1.14-.07.26-.15.35-.26.09-.11.17-.22.22-.35.06-.13.09-.26.12-.39v-.02s0,1.05,0,1.05h1.14v-6.43h-1.14ZM4.86,92.78c-.01.06-.06.12-.13.2s-.17.14-.29.19c-.12.05-.26.08-.43.08-.3,0-.53-.12-.7-.35-.17-.24-.25-.58-.25-1.02,0-.48.09-.83.27-1.06.18-.22.42-.33.72-.33.16,0,.29.02.41.06s.2.1.26.17c.06.07.11.15.13.24h0s0,1.84,0,1.84h0ZM7.36,87.57c-.2,0-.36.07-.5.2-.14.13-.21.31-.21.52s.07.4.21.53c.14.14.31.21.5.21s.36-.07.5-.21c.14-.14.21-.31.21-.53s-.07-.39-.21-.52-.31-.2-.5-.2ZM6.79,94.13h1.14v-4.51s-1.14,0-1.14,0v4.51ZM11.54,91.85c-.16-.09-.32-.17-.5-.22s-.34-.1-.5-.15c-.21-.06-.38-.12-.52-.18s-.24-.12-.31-.2-.1-.17-.1-.29c0-.1.02-.18.07-.24.05-.07.12-.12.2-.15.08-.04.18-.05.3-.05.1,0,.19.02.28.05.09.03.17.09.24.18s.12.21.15.39h1.1c-.05-.37-.15-.66-.31-.87s-.37-.36-.61-.44-.52-.13-.83-.13c-.51,0-.92.11-1.23.33-.31.22-.47.55-.47.97,0,.3.07.54.21.72s.32.33.55.44c.23.11.48.21.75.29.15.04.29.08.4.12.12.04.22.07.3.11.08.04.15.09.19.14.04.06.06.13.06.22,0,.12-.03.21-.1.27-.06.07-.15.11-.26.14s-.22.04-.35.04c-.21,0-.38-.05-.51-.15s-.22-.26-.25-.49h-1.1c.02.34.1.62.26.84.16.22.37.38.64.49s.59.16.96.16c.56,0,1-.12,1.33-.36.33-.24.49-.58.49-1.02,0-.25-.05-.45-.15-.6-.1-.16-.23-.28-.39-.37ZM15.09,92.98c-.07.1-.16.18-.27.23s-.22.07-.32.07c-.34,0-.6-.13-.78-.36s-.26-.59-.26-1.08c0-.44.08-.78.23-1.02.15-.24.39-.36.73-.36.13,0,.24.02.33.05.09.03.17.08.23.15.06.07.11.15.14.24s.05.21.05.33h1.1c.02-.32-.04-.61-.18-.86-.14-.26-.35-.46-.63-.61-.28-.15-.63-.22-1.05-.22s-.8.09-1.11.28c-.31.18-.56.45-.73.8-.17.35-.25.76-.25,1.25s.08.88.25,1.23c.16.35.4.63.72.83s.71.29,1.17.29c.36,0,.68-.07.96-.2.28-.13.49-.32.65-.56s.23-.53.22-.85h-1.09c0,.15-.03.28-.1.38ZM19.74,89.81c-.32-.19-.69-.28-1.13-.28-.41,0-.77.09-1.09.28-.32.19-.57.45-.76.8-.18.35-.28.76-.28,1.24,0,.51.09.94.26,1.28.17.35.42.61.74.79.32.18.69.27,1.11.27.4,0,.76-.09,1.08-.27.32-.18.58-.44.76-.79s.28-.78.28-1.28c0-.48-.08-.89-.25-1.24-.17-.35-.41-.61-.73-.8ZM19.31,92.92c-.18.21-.42.31-.7.31s-.51-.11-.7-.33c-.19-.22-.29-.57-.29-1.06s.09-.82.27-1.04c.18-.22.42-.33.7-.33s.53.11.71.33c.18.22.27.56.27,1.04,0,.51-.09.87-.27,1.08ZM23.73,89.62l-.59,2.27-.29,1.15h-.04l-.29-1.15-.59-2.26h-1.26l1.55,4.51h1.22l1.54-4.51h-1.26ZM28.17,89.78c-.29-.16-.65-.24-1.07-.24s-.8.09-1.12.27c-.33.18-.58.45-.76.79-.18.35-.27.77-.27,1.27s.09.92.26,1.26.42.61.74.79.7.27,1.15.27c.36,0,.68-.06.95-.17.27-.12.49-.28.65-.5.16-.22.25-.48.28-.78h-1.1c-.03.15-.11.28-.24.39-.13.11-.32.16-.56.16-.28,0-.51-.1-.69-.29-.17-.19-.27-.5-.3-.91h2.96c0-.09.01-.17.01-.23,0-.07,0-.14,0-.21,0-.46-.08-.85-.23-1.16-.15-.31-.37-.55-.66-.71ZM26.56,91.4c-.15,0-.27.03-.34.08-.08.05-.13.15-.15.29,0-.42.09-.74.25-.97.16-.23.41-.34.74-.34.3,0,.52.08.66.24.14.16.21.4.23.7h-1.39ZM32.17,90.76v-1.2s-.1-.02-.16-.03c-.06,0-.11,0-.17,0-.21,0-.39.04-.54.13-.15.09-.28.2-.38.35-.1.15-.19.32-.25.51-.04.11-.05.23-.07.35l-.08-1.25h-1v4.51h1.15v-2.97c.05-.1.13-.19.23-.26s.21-.12.33-.16c.12-.03.25-.05.38-.05.09,0,.18,0,.27.01s.19.03.29.06ZM32.44,92.75c-.19,0-.35.07-.48.2-.13.13-.2.31-.2.52s.07.39.2.52.29.2.48.2.35-.07.49-.2.2-.31.2-.52-.07-.38-.2-.52c-.13-.14-.29-.2-.48-.2ZM35.38,93.22c-.16,0-.27-.03-.33-.1-.06-.07-.09-.19-.09-.37v-2.2h1.02v-.93h-1.02v-1.29h-.91l-.22,1.29h-.54v.93h.82c-.09.02-.16.07-.21.14-.05.07-.07.15-.07.25v2.15c0,.37.11.65.31.83.2.19.49.28.85.28.18,0,.36,0,.55,0s.34-.02.46-.06v-.93c-.08,0-.17.01-.27.02-.1,0-.21,0-.34,0ZM38.75,89.53c-.21,0-.39.04-.54.13-.15.09-.28.2-.38.35-.1.15-.19.32-.25.51-.04.11-.05.23-.07.35l-.08-1.25h-1v4.51h1.15v-2.97c.05-.1.13-.19.23-.26s.21-.12.33-.16c.12-.03.25-.05.38-.05.09,0,.18,0,.27.01s.19.03.29.06v-1.2s-.1-.02-.16-.03c-.06,0-.11,0-.17,0ZM42.4,89.87c-.17-.12-.36-.21-.57-.26-.21-.05-.44-.08-.67-.08-.4,0-.74.06-1.04.18-.29.12-.52.31-.67.56-.15.25-.21.58-.18.97h1.06c0-.22.03-.38.09-.5.06-.12.14-.2.26-.24s.26-.07.42-.07c.26,0,.45.07.56.2.11.13.16.35.16.64v.15c-.1,0-.23.02-.39.03-.16.01-.33.03-.51.06-.18.02-.36.05-.53.08-.25.05-.46.13-.65.23-.19.1-.33.24-.44.42-.1.17-.16.4-.16.67,0,.26.06.48.18.66.12.19.29.33.5.43.21.1.45.15.71.15.41,0,.71-.1.91-.31s.33-.46.38-.77v1.03s1.11,0,1.11,0v-2.95c0-.33-.05-.59-.15-.81-.1-.21-.23-.38-.4-.5ZM41.83,92.78c-.02.12-.09.22-.18.31-.1.09-.21.16-.35.21-.13.05-.27.08-.41.08-.11,0-.2-.02-.29-.07-.08-.04-.15-.11-.19-.19-.05-.08-.07-.18-.07-.29,0-.19.06-.34.18-.44s.32-.19.61-.25c.1-.02.21-.04.34-.07.13-.02.25-.04.36-.06v.77ZM46.18,92.98c-.07.1-.16.18-.27.23s-.22.07-.32.07c-.34,0-.6-.13-.78-.36s-.26-.59-.26-1.08c0-.44.08-.78.23-1.02.15-.24.39-.36.73-.36.13,0,.24.02.33.05.09.03.17.08.23.15.06.07.11.15.14.24s.05.21.05.33h1.1c.02-.32-.04-.61-.18-.86-.14-.26-.35-.46-.63-.61-.28-.15-.63-.22-1.05-.22s-.8.09-1.11.28c-.31.18-.56.45-.73.8-.17.35-.25.76-.25,1.25s.08.88.25,1.23c.16.35.4.63.72.83s.71.29,1.17.29c.36,0,.68-.07.96-.2.28-.13.49-.32.65-.56s.23-.53.22-.85h-1.09c0,.15-.03.28-.1.38ZM49.99,91.67l.31-.36,1.44-1.69h-1.45l-.74,1.05-.68.98.06-.65v-3.31h-1.12v6.44h1.12v-1.75l-.07-.68,1.6,2.43h1.42l-1.57-2.1-.32-.36ZM52.68,92.75c-.19,0-.35.07-.48.2-.13.13-.2.31-.2.52s.07.39.2.52.29.2.48.2.35-.07.49-.2.2-.31.2-.52-.07-.38-.2-.52c-.13-.14-.29-.2-.48-.2ZM56.7,91.85c-.16-.09-.32-.17-.5-.22s-.34-.1-.5-.15c-.21-.06-.38-.12-.52-.18s-.24-.12-.31-.2-.1-.17-.1-.29c0-.1.02-.18.07-.24.05-.07.12-.12.2-.15.08-.04.18-.05.3-.05.1,0,.19.02.28.05.09.03.17.09.24.18s.12.21.15.39h1.1c-.05-.37-.15-.66-.31-.87s-.37-.36-.61-.44-.52-.13-.83-.13c-.51,0-.92.11-1.23.33-.31.22-.47.55-.47.97,0,.3.07.54.21.72s.32.33.55.44c.23.11.48.21.75.29.15.04.29.08.4.12.12.04.22.07.3.11.08.04.15.09.19.14.04.06.06.13.06.22,0,.12-.03.21-.1.27-.06.07-.15.11-.26.14s-.22.04-.35.04c-.21,0-.38-.05-.51-.15s-.22-.26-.25-.49h-1.1c.02.34.1.62.26.84.16.22.37.38.64.49s.59.16.96.16c.56,0,1-.12,1.33-.36.33-.24.49-.58.49-1.02,0-.25-.05-.45-.15-.6-.1-.16-.23-.28-.39-.37ZM60.18,89.53c-.32,0-.58.07-.77.21-.2.14-.35.32-.44.54-.09.21-.15.43-.19.66v-.03s.07-1.29.07-1.29v-1.93h-1.12v6.44h1.14v-3.02c.08-.17.2-.31.34-.43.15-.12.31-.18.49-.18.26,0,.44.08.54.25s.15.43.15.81v2.58h1.15v-2.99c0-.55-.12-.95-.36-1.22-.24-.27-.57-.4-.99-.4ZM65.27,89.87c-.17-.12-.36-.21-.57-.26-.21-.05-.44-.08-.67-.08-.4,0-.74.06-1.04.18-.29.12-.52.31-.67.56-.15.25-.21.58-.18.97h1.06c0-.22.03-.38.09-.5.06-.12.14-.2.26-.24s.26-.07.42-.07c.26,0,.45.07.56.2.11.13.16.35.16.64v.15c-.1,0-.23.02-.39.03-.16.01-.33.03-.51.06-.18.02-.36.05-.53.08-.25.05-.46.13-.65.23-.19.1-.33.24-.44.42-.1.17-.16.4-.16.67,0,.26.06.48.18.66.12.19.29.33.5.43.21.1.45.15.71.15.41,0,.71-.1.91-.31s.33-.46.38-.77v1.03s1.11,0,1.11,0v-2.95c0-.33-.05-.59-.15-.81-.1-.21-.23-.38-.4-.5ZM64.7,92.78c-.02.12-.09.22-.18.31-.1.09-.21.16-.35.21-.13.05-.27.08-.41.08-.11,0-.2-.02-.29-.07-.08-.04-.15-.11-.19-.19-.05-.08-.07-.18-.07-.29,0-.19.06-.34.18-.44s.32-.19.61-.25c.1-.02.21-.04.34-.07.13-.02.25-.04.36-.06v.77ZM68.88,89.53c-.21,0-.39.04-.54.13-.15.09-.28.2-.38.35-.1.15-.19.32-.25.51-.04.11-.05.23-.07.35l-.08-1.25h-1v4.51h1.15v-2.97c.05-.1.13-.19.23-.26s.21-.12.33-.16c.12-.03.25-.05.38-.05.09,0,.18,0,.27.01s.19.03.29.06v-1.2s-.1-.02-.16-.03c-.06,0-.11,0-.17,0ZM72.48,89.78c-.29-.16-.65-.24-1.07-.24s-.8.09-1.12.27c-.33.18-.58.45-.76.79-.18.35-.27.77-.27,1.27s.09.92.26,1.26.42.61.74.79.7.27,1.15.27c.36,0,.68-.06.95-.17.27-.12.49-.28.65-.5.16-.22.25-.48.28-.78h-1.1c-.03.15-.11.28-.24.39-.13.11-.32.16-.56.16-.28,0-.51-.1-.69-.29-.17-.19-.27-.5-.3-.91h2.96c0-.09.01-.17.01-.23,0-.07,0-.14,0-.21,0-.46-.08-.85-.23-1.16-.15-.31-.37-.55-.66-.71ZM70.87,91.4c-.15,0-.27.03-.34.08-.08.05-.13.15-.15.29,0-.42.09-.74.25-.97.16-.23.41-.34.74-.34.3,0,.52.08.66.24.14.16.21.4.23.7h-1.39ZM74.67,92.95c-.13-.14-.29-.2-.48-.2s-.35.07-.48.2c-.13.13-.2.31-.2.52s.07.39.2.52.29.2.48.2.35-.07.49-.2.2-.31.2-.52-.07-.38-.2-.52Z"/>
      </g>
      <g id="logomark.square.gradient">
        <path id="background" class="cls-1" d="M62.4,11.26v25.47c0,6.22-5.05,11.27-11.27,11.27h-25.47c-6.22,0-11.26-5.05-11.26-11.27V11.26C14.4,5.04,19.44,0,25.66,0h25.47c3.32,0,6.3,1.43,8.37,3.72.47.52.89,1.08,1.25,1.68.18.29.34.59.5.89.33.68.6,1.39.79,2.14.1.37.18.76.23,1.15.09.54.13,1.11.13,1.68Z"/>
        <g id="checkbox">
          <path class="cls-2" d="M27.32,18.67l-1.46,1.46,14.4,14.4,1.46-1.47-4.32-4.31L60.75,5.4c-.36-.6-.78-1.16-1.25-1.68l-23.56,23.56-8.62-8.61ZM28.01,17.98l7.92,7.92,1.47-1.47-7.92-7.92-1.47,1.47ZM42.41,32.37l1.47-1.46-2.16-2.16,20.32-20.32c-.19-.75-.46-1.46-.79-2.14l-22.46,22.46,3.62,3.62ZM39.56,22.27l-7.92-7.92-1.47,1.47,7.92,7.92,1.47-1.47ZM62.27,9.58l-19.17,19.17,1.47,1.46,17.83-17.83v-1.12c0-.57-.04-1.14-.13-1.68ZM55.72,35.12c0,3.42-2.78,6.2-6.2,6.2h-22.24c-3.42,0-6.2-2.78-6.2-6.2V12.88c0-3.42,2.78-6.21,6.2-6.21h20.78v-2.07h-20.78c-4.56,0-8.28,3.71-8.28,8.28v22.24c0,4.56,3.71,8.28,8.28,8.28h22.24c4.56,0,8.28-3.71,8.28-8.28v-3.51h-2.07v3.51Z"/>
        </g>
      </g>
    </g>
  </g>
</svg>