<?xml version="1.0" encoding="UTF-8"?>
<svg id="Layer_2" xmlns="http://www.w3.org/2000/svg" viewBox="0 0 48 48">
  <defs>
    <style>
      .cls-1 {
        fill: #fff;
      }
    </style>
  </defs>
  <g id="_x2D_-production">
    <g id="logomark.circle.black">
      <path class="cls-1" d="M45.99,14.4c-.29-.67-.61-1.32-.96-1.97-.16-.29-.33-.58-.51-.87-.36-.6-.75-1.18-1.17-1.76-.19-.26-.39-.52-.61-.77-.42-.55-.87-1.07-1.36-1.57C37,2.86,30.83,0,24,0,10.75,0,0,10.75,0,24s10.75,24,24,24c6.62,0,12.62-2.69,16.97-7.03,4.34-4.34,7.03-10.34,7.03-16.97,0-3.41-.71-6.66-2.01-9.6ZM24,47c-12.68,0-23-10.31-23-23S11.32,1,24,1c6.55,0,12.47,2.75,16.66,7.16l-19.11,19.12-8.62-8.62-1.46,1.46,14.4,14.4,1.46-1.47-4.31-4.31,19.01-19.01c.21.25.41.52.6.78l-18.23,18.23,3.62,3.62,1.46-1.46-2.16-2.16,16.46-16.47c.17.29.34.58.5.88l-15.58,15.58,1.46,1.46,15.06-15.06c1.13,2.72,1.77,5.71,1.77,8.84,0,12.68-10.31,23-23,23ZM15.77,15.82l7.93,7.93,1.46-1.48-7.93-7.92-1.46,1.46ZM13.62,17.98l7.93,7.93,1.46-1.48-7.93-7.92-1.46,1.47ZM24,41.33c-9.55,0-17.33-7.78-17.33-17.33S14.45,6.68,24,6.68c2.61,0,5.11.56,7.44,1.68l.89-1.88c-2.62-1.24-5.42-1.88-8.34-1.88C13.3,4.61,4.61,13.3,4.61,24s8.7,19.4,19.39,19.4c7.64,0,14.59-4.51,17.71-11.49l-1.89-.84c-2.79,6.23-9,10.25-15.82,10.25Z"/>
    </g>
  </g>
</svg>