<?xml version="1.0" encoding="UTF-8"?>
<svg id="Layer_2" xmlns="http://www.w3.org/2000/svg" viewBox="0 0 104.54 39.66">
  <defs>
    <style>
      .cls-1 {
        fill: #9f42c6;
      }
    </style>
  </defs>
  <g id="_x2D_-production">
    <g id="logotype.color">
      <path class="cls-1" d="M10.5,0h-5l-1.44,8.74H0v5.73h5.53c-.48.13-.86.44-1.13.93-.27.49-.41,1.04-.41,1.63l.03,15.44c0,2.31.67,4.08,2.01,5.32,1.34,1.24,3.22,1.86,5.64,1.86,1.02,0,2.11-.01,3.25-.04,1.15-.03,2.21-.14,3.2-.32v-5.61c-.58.02-1.22.03-1.93.04s-1.48.01-2.32.01c-1.3,0-2.19-.21-2.67-.64-.47-.43-.71-1.18-.71-2.26V14.47h7.68v-5.73h-7.68V0ZM35.38,8.1c-1.53,0-2.83.32-3.91.96-1.08.64-1.95,1.49-2.62,2.56-.67,1.06-1.19,2.22-1.56,3.49-.16.54-.28,1.08-.4,1.61l-.49-7.98h-5.64v30.47h6.59v-20.44c.32-.86.83-1.57,1.54-2.15.71-.58,1.48-1.01,2.32-1.3.84-.29,1.62-.43,2.35-.43.61,0,1.28.03,1.98.08s1.38.2,2.01.42v-7.04c-.32-.09-.66-.16-1.02-.2-.36-.04-.74-.06-1.13-.06ZM59.17,10.43c-1.06-.83-2.28-1.41-3.66-1.76s-2.83-.52-4.36-.52c-2.61,0-4.86.4-6.77,1.2-1.91.8-3.34,2.04-4.3,3.73-.96,1.69-1.34,3.84-1.13,6.46h6c.04-1.6.27-2.83.71-3.67.44-.85,1.08-1.43,1.94-1.75.86-.32,1.92-.47,3.18-.47,1.97,0,3.37.52,4.2,1.55.83,1.03,1.24,2.59,1.24,4.68v1.26c-.61.04-1.49.11-2.64.21s-2.38.23-3.7.39c-1.32.16-2.57.37-3.74.63-1.71.35-3.18.89-4.41,1.61-1.23.72-2.17,1.66-2.82,2.82-.65,1.16-.98,2.64-.98,4.43,0,1.64.41,3.09,1.21,4.34.81,1.26,1.94,2.23,3.38,2.93,1.44.7,3.08,1.05,4.9,1.05,2.62,0,4.66-.68,6.1-2.04,1.44-1.36,2.34-3.06,2.69-5.11l-.08,6.81h6.45v-19.94c0-2.2-.31-4.01-.92-5.45s-1.45-2.56-2.51-3.39ZM56.24,30.38c-.19.86-.66,1.6-1.41,2.23-.75.63-1.63,1.11-2.64,1.44-1.01.33-1.99.49-2.96.49-.73.02-1.41-.13-2.04-.46-.63-.33-1.15-.79-1.54-1.38-.39-.6-.59-1.3-.59-2.12,0-1.45.47-2.53,1.4-3.23.93-.7,2.44-1.25,4.52-1.66.73-.17,1.6-.34,2.61-.52,1.01-.18,1.89-.3,2.64-.38v5.59ZM104.54,14.47v-5.73h-7.68V0h-5l-1.44,8.74h-1.93,0s-7.8,0-7.8,0l-7.53,10.61-2.33,4.05v-14.66h-6.67v30.48h6.67v-8.5l3.39-4.25,7.35,12.75h7.94l-10.63-17.36,7.46-10.19v2.81h5.53c-.48.13-.86.44-1.13.93-.27.49-.41,1.04-.41,1.63l.03,15.44c0,2.31.67,4.08,2.01,5.32,1.34,1.24,3.22,1.86,5.64,1.86,1.02,0,2.11-.01,3.25-.04,1.15-.03,2.21-.14,3.2-.32v-5.61c-.58.02-1.22.03-1.93.04s-1.48.01-2.32.01c-1.3,0-2.19-.21-2.67-.64-.47-.43-.71-1.18-.71-2.26V14.47h7.68Z"/>
    </g>
  </g>
</svg>