<?xml version="1.0" encoding="UTF-8"?>
<svg id="Layer_2" xmlns="http://www.w3.org/2000/svg" viewBox="0 0 48 48">
  <defs>
    <style>
      .cls-1 {
        fill: #fff;
      }
    </style>
  </defs>
  <g id="_x2D_-production">
    <path id="logomark.circle.white" class="cls-1" d="M45.99,14.39l-15.82,15.83-1.46-1.46,16.31-16.32c-.15-.3-.32-.58-.5-.87l-17.2,17.2,2.16,2.16-1.46,1.46-3.62-3.62,18.94-18.95c-.18-.27-.38-.53-.6-.78l-19.73,19.74,4.31,4.31-1.46,1.46-14.4-14.4,1.46-1.46,8.62,8.62L41.37,7.46c-.12-.14-.26-.28-.4-.42C36.62,2.69,30.62,0,24,0S11.38,2.69,7.03,7.03C2.69,11.37,0,17.37,0,24c0,13.25,10.75,24,24,24,6.62,0,12.62-2.69,16.97-7.03,4.34-4.33,7.03-10.33,7.03-16.97,0-3.42-.71-6.67-2.01-9.61ZM21.54,25.9l-7.93-7.92,1.46-1.46,7.93,7.92-1.46,1.46ZM23.7,23.74l-7.93-7.92,1.46-1.46,7.93,7.92-1.46,1.46ZM24,43.39c-10.7,0-19.39-8.7-19.39-19.39S13.3,4.61,24,4.61c2.91,0,5.72.63,8.33,1.88l-.89,1.88c-2.33-1.11-4.84-1.68-7.43-1.68-9.55,0-17.33,7.77-17.33,17.32s7.78,17.33,17.33,17.33c6.82,0,13.03-4.03,15.82-10.25l1.89.84c-3.12,6.97-10.07,11.48-17.71,11.48Z"/>
  </g>
</svg>