<?xml version="1.0" encoding="UTF-8"?>
<svg id="Layer_2" xmlns="http://www.w3.org/2000/svg" xmlns:xlink="http://www.w3.org/1999/xlink" viewBox="0 0 48 48">
  <defs>
    <style>
      .cls-1 {
        fill: #fff;
      }

      .cls-2 {
        fill: url(#New_Gradient_Swatch_2);
      }
    </style>
    <radialGradient id="New_Gradient_Swatch_2" data-name="New Gradient Swatch 2" cx="48.06" cy="-.12" fx="48.06" fy="-.12" r="58.11" gradientUnits="userSpaceOnUse">
      <stop offset="0" stop-color="#9f42c6"/>
      <stop offset=".27" stop-color="#a041c3"/>
      <stop offset=".42" stop-color="#a43ebb"/>
      <stop offset=".53" stop-color="#aa39ad"/>
      <stop offset=".64" stop-color="#b4339a"/>
      <stop offset=".73" stop-color="#c02b81"/>
      <stop offset=".82" stop-color="#cf2061"/>
      <stop offset=".9" stop-color="#e1143c"/>
      <stop offset=".97" stop-color="#f50613"/>
      <stop offset="1" stop-color="red"/>
    </radialGradient>
  </defs>
  <g id="_x2D_-production">
    <g id="logomark.circle.gradient">
      <path id="background" class="cls-2" d="M48,24c0,6.62-2.69,12.62-7.03,16.97-4.34,4.34-10.34,7.03-16.97,7.03C10.75,48,0,37.25,0,24c0-6.63,2.69-12.63,7.03-16.97C11.37,2.68,17.37,0,24,0s12.63,2.68,16.97,7.03c.14.14.27.28.4.42.48.5.94,1.02,1.37,1.56.21.26.41.52.6.79.43.57.82,1.16,1.18,1.76.18.29.35.58.51.87.35.64.68,1.29.96,1.97,1.3,2.94,2.01,6.18,2.01,9.6Z"/>
      <g id="checkbox">
        <path class="cls-1" d="M12.93,18.67l-1.47,1.46,14.4,14.4,1.47-1.47-4.32-4.31,19.73-19.74c-.43-.54-.89-1.06-1.37-1.56l-19.83,19.83-8.61-8.61ZM30.18,30.21l15.81-15.81c-.28-.68-.61-1.33-.96-1.97l-16.32,16.32,1.47,1.46ZM28.02,32.37l1.46-1.46-2.15-2.16,17.19-17.19c-.36-.6-.75-1.19-1.18-1.76l-18.94,18.95,3.62,3.62ZM13.62,17.97l7.92,7.92,1.47-1.47-7.92-7.92-1.47,1.47ZM25.17,22.27l-7.92-7.92-1.47,1.47,7.92,7.92,1.47-1.47ZM24,41.32c-9.55,0-17.32-7.77-17.32-17.32S14.45,6.67,24,6.67c2.6,0,5.11.56,7.44,1.68l.89-1.87c-2.61-1.25-5.42-1.88-8.33-1.88C13.31,4.6,4.61,13.3,4.61,24s8.7,19.4,19.4,19.4c7.64,0,14.59-4.51,17.71-11.48l-1.89-.85c-2.79,6.23-9,10.26-15.82,10.26Z"/>
      </g>
    </g>
  </g>
</svg>