<?xml version="1.0" encoding="UTF-8"?>
<svg id="Layer_2" xmlns="http://www.w3.org/2000/svg" xmlns:xlink="http://www.w3.org/1999/xlink" viewBox="0 0 224.47 48">
  <defs>
    <style>
      .cls-1 {
        fill: url(#radial-gradient);
      }

      .cls-2 {
        fill: #fff;
      }
    </style>
    <radialGradient id="radial-gradient" cx="48.46" cy="-.95" fx="48.46" fy="-.95" r="64.84" gradientUnits="userSpaceOnUse">
      <stop offset="0" stop-color="#9f42c6"/>
      <stop offset=".27" stop-color="#a041c3"/>
      <stop offset=".42" stop-color="#a43ebb"/>
      <stop offset=".53" stop-color="#aa39ad"/>
      <stop offset=".64" stop-color="#b4339a"/>
      <stop offset=".73" stop-color="#c02b81"/>
      <stop offset=".82" stop-color="#cf2061"/>
      <stop offset=".9" stop-color="#e1143c"/>
      <stop offset=".97" stop-color="#f50613"/>
      <stop offset="1" stop-color="red"/>
    </radialGradient>
  </defs>
  <g id="_x2D_-production">
    <g id="logo.tagline.wide.negative">
      <g id="logotype.white">
        <path class="cls-2" d="M75.57.19h-5l-1.44,8.74h-4.06v5.73h5.53c-.48.13-.86.44-1.13.93-.27.49-.41,1.04-.41,1.63l.03,15.44c0,2.31.67,4.08,2.01,5.32,1.34,1.24,3.22,1.86,5.64,1.86,1.02,0,2.11-.01,3.25-.04,1.15-.03,2.21-.14,3.2-.32v-5.61c-.58.02-1.22.03-1.93.04s-1.48.01-2.32.01c-1.3,0-2.19-.21-2.67-.64-.47-.43-.71-1.18-.71-2.26V14.66h7.68v-5.73h-7.68V.19ZM100.46,8.29c-1.53,0-2.83.32-3.91.96-1.08.64-1.95,1.49-2.62,2.56-.67,1.06-1.19,2.22-1.56,3.49-.16.54-.28,1.08-.4,1.61l-.49-7.98h-5.64v30.47h6.59v-20.44c.32-.86.83-1.57,1.54-2.15.71-.58,1.48-1.01,2.32-1.3.84-.29,1.62-.43,2.35-.43.61,0,1.28.03,1.98.08s1.38.2,2.01.42v-7.04c-.32-.09-.66-.16-1.02-.2-.36-.04-.74-.06-1.13-.06ZM124.25,10.62c-1.06-.83-2.28-1.41-3.66-1.76s-2.83-.52-4.36-.52c-2.61,0-4.86.4-6.77,1.2-1.91.8-3.34,2.04-4.3,3.73-.96,1.69-1.34,3.84-1.13,6.46h6c.04-1.6.27-2.83.71-3.67.44-.85,1.08-1.43,1.94-1.75.86-.32,1.92-.47,3.18-.47,1.97,0,3.37.52,4.2,1.55.83,1.03,1.24,2.59,1.24,4.68v1.26c-.61.04-1.49.11-2.64.21s-2.38.23-3.7.39c-1.32.16-2.57.37-3.74.63-1.71.35-3.18.89-4.41,1.61-1.23.72-2.17,1.66-2.82,2.82-.65,1.16-.98,2.64-.98,4.43,0,1.64.41,3.09,1.21,4.34.81,1.26,1.94,2.23,3.38,2.93,1.44.7,3.08,1.05,4.9,1.05,2.62,0,4.66-.68,6.1-2.04,1.44-1.36,2.34-3.06,2.69-5.11l-.08,6.81h6.45v-19.94c0-2.2-.31-4.01-.92-5.45s-1.45-2.56-2.51-3.39ZM121.32,30.57c-.19.86-.66,1.6-1.41,2.23-.75.63-1.63,1.11-2.64,1.44-1.01.33-1.99.49-2.96.49-.73.02-1.41-.13-2.04-.46-.63-.33-1.15-.79-1.54-1.38-.39-.6-.59-1.3-.59-2.12,0-1.45.47-2.53,1.4-3.23.93-.7,2.44-1.25,4.52-1.66.73-.17,1.6-.34,2.61-.52,1.01-.18,1.89-.3,2.64-.38v5.59ZM169.62,14.66v-5.73h-7.68V.19h-5l-1.44,8.74h-1.93,0s-7.8,0-7.8,0l-7.53,10.61-2.33,4.05v-14.66h-6.67v30.48h6.67v-8.5l3.39-4.25,7.35,12.75h7.94l-10.63-17.36,7.46-10.19v2.81h5.53c-.48.13-.86.44-1.13.93-.27.49-.41,1.04-.41,1.63l.03,15.44c0,2.31.67,4.08,2.01,5.32,1.34,1.24,3.22,1.86,5.64,1.86,1.02,0,2.11-.01,3.25-.04,1.15-.03,2.21-.14,3.2-.32v-5.61c-.58.02-1.22.03-1.93.04s-1.48.01-2.32.01c-1.3,0-2.19-.21-2.67-.64-.47-.43-.71-1.18-.71-2.26V14.66h7.68Z"/>
      </g>
      <g id="taglinestack.white">
        <path class="cls-2" d="M180.34,15.13c.37.29.83.43,1.37.43.3,0,.55-.05.76-.14.2-.09.37-.22.51-.37.14-.15.24-.32.32-.51.08-.19.14-.37.17-.56v-.02s0,1.53,0,1.53h1.65V6.14h-1.66v3.66c-.04-.11-.1-.22-.18-.33-.13-.19-.32-.35-.57-.48-.24-.13-.56-.19-.94-.19-.47,0-.91.13-1.3.39-.39.26-.71.64-.94,1.14-.23.5-.35,1.11-.35,1.84,0,.67.1,1.26.29,1.76.19.51.48.9.85,1.19ZM181.26,10.67c.26-.32.61-.49,1.05-.49.23,0,.43.03.59.09.16.06.29.14.38.24.09.1.16.22.19.34h0s0,2.67,0,2.67h0c-.02.07-.08.17-.18.28-.1.11-.24.2-.41.28s-.38.12-.62.12c-.43,0-.77-.17-1.01-.51-.24-.34-.37-.84-.37-1.49,0-.7.13-1.21.39-1.54ZM186.26,15.48h1.65v-6.55s-1.65,0-1.65,0v6.55ZM187.09,8.07c.28,0,.53-.1.73-.3.2-.2.31-.46.31-.77s-.1-.57-.31-.76c-.2-.2-.45-.29-.73-.29s-.53.1-.73.29c-.2.2-.31.45-.31.76s.1.57.31.77.45.3.73.3ZM191.8,14.28c-.16.04-.33.06-.51.06-.3,0-.55-.07-.74-.22-.19-.15-.32-.38-.36-.71h-1.6c.02.5.15.9.38,1.22.23.32.54.56.93.71.39.16.86.23,1.39.23.81,0,1.46-.18,1.94-.53.48-.35.72-.84.72-1.48,0-.36-.07-.65-.22-.87-.15-.23-.33-.41-.56-.54-.23-.13-.47-.24-.73-.32-.26-.08-.5-.15-.72-.21-.3-.09-.56-.18-.76-.26-.2-.08-.35-.18-.45-.29-.1-.11-.15-.25-.15-.41,0-.14.04-.26.11-.35.07-.09.17-.17.29-.22.12-.05.27-.08.43-.08.14,0,.28.02.41.07.13.04.24.13.34.26.1.12.18.31.23.56h1.6c-.07-.53-.22-.95-.45-1.26-.23-.3-.53-.52-.89-.64-.36-.13-.76-.19-1.21-.19-.74,0-1.33.16-1.79.49-.46.32-.68.79-.68,1.41,0,.43.1.78.3,1.05.2.27.47.48.8.65.33.16.7.3,1.09.42.22.06.42.12.59.17.17.05.32.11.44.16.12.06.21.13.27.21.06.08.09.19.09.32,0,.17-.05.3-.14.4-.09.1-.22.16-.38.2ZM195.69,15.16c.46.29,1.03.43,1.7.43.52,0,.99-.1,1.39-.29.4-.19.72-.46.94-.81.23-.35.33-.76.32-1.24h-1.58c0,.22-.05.41-.15.56-.1.15-.23.26-.39.33-.16.07-.31.1-.46.1-.5-.01-.88-.18-1.13-.52-.25-.33-.38-.86-.38-1.57,0-.64.11-1.14.33-1.48.22-.34.57-.52,1.05-.52.18,0,.34.02.48.07.13.05.25.12.34.21.09.09.16.21.21.35.05.14.07.3.08.48h1.6c.02-.46-.06-.88-.26-1.25-.2-.37-.5-.67-.91-.88-.41-.22-.92-.32-1.53-.32s-1.16.13-1.61.4c-.46.27-.81.65-1.05,1.16-.25.5-.37,1.11-.37,1.81s.12,1.28.36,1.79c.24.51.59.91,1.05,1.2ZM201.78,15.18c.46.26,1,.39,1.62.39.58,0,1.11-.13,1.57-.39.47-.26.84-.64,1.11-1.15.27-.51.41-1.13.41-1.86,0-.7-.12-1.3-.37-1.8-.24-.5-.59-.89-1.05-1.16-.46-.27-1.01-.41-1.65-.41-.59,0-1.12.14-1.59.41s-.83.66-1.1,1.16-.4,1.1-.4,1.8c0,.74.13,1.36.38,1.86.25.51.61.89,1.07,1.15ZM202.38,10.66c.27-.32.6-.47,1.01-.47s.77.16,1.03.48c.27.32.4.82.4,1.5,0,.74-.13,1.26-.4,1.56-.27.3-.6.46-1.01.46s-.74-.16-1.02-.48c-.28-.32-.41-.83-.41-1.53s.13-1.19.4-1.51ZM210.85,8.93l-.86,3.29-.41,1.67h-.05l-.43-1.67-.85-3.28h-1.82l2.24,6.55h1.78l2.24-6.55h-1.83ZM217.29,9.15c-.42-.24-.94-.35-1.55-.35s-1.16.13-1.63.4c-.47.26-.84.65-1.1,1.15-.26.5-.39,1.12-.39,1.85s.12,1.33.37,1.83c.25.5.6.88,1.07,1.15.46.26,1.02.39,1.67.39.52,0,.98-.08,1.38-.25.39-.17.71-.41.94-.73.23-.32.37-.69.41-1.13h-1.59c-.04.22-.16.41-.35.57-.19.16-.46.24-.82.24-.41,0-.75-.14-1-.42s-.4-.72-.43-1.32h4.3c0-.13.02-.24.02-.34,0-.1,0-.2,0-.31,0-.67-.11-1.23-.33-1.68-.22-.45-.54-.8-.96-1.04ZM214.96,11.51c-.22,0-.39.04-.5.11-.11.08-.18.22-.22.43.01-.6.13-1.07.37-1.41.23-.33.59-.5,1.07-.5.44,0,.76.12.96.35.2.23.31.57.33,1.02h-2.02ZM223.1,10.59v-1.74c-.07-.02-.14-.03-.23-.04-.08,0-.16-.01-.24-.01-.3,0-.56.06-.78.19-.22.13-.41.3-.56.51-.15.21-.27.46-.36.74-.05.16-.07.34-.1.51l-.11-1.81h-1.46v6.55h1.66v-4.31c.08-.15.18-.28.33-.38.14-.1.3-.18.48-.23s.36-.07.55-.07c.13,0,.26,0,.4.02.14.01.28.04.42.08ZM224.19,13.77c-.19-.2-.42-.29-.7-.29s-.51.1-.7.29c-.19.2-.29.45-.29.75s.1.56.29.76c.19.19.42.29.69.29s.52-.1.71-.29c.19-.19.28-.45.28-.76s-.1-.55-.28-.75ZM179.99,22.43c-.07.1-.11.22-.11.36v3.11c.01.54.16.94.46,1.21.3.27.71.41,1.24.41.26,0,.53,0,.8,0,.27,0,.49-.03.66-.08v-1.34c-.12.01-.25.02-.4.02-.14,0-.31,0-.5,0-.24,0-.4-.05-.48-.15-.08-.1-.13-.28-.13-.54v-3.2h1.48v-1.34h-1.48v-1.88h-1.32l-.32,1.88h-.79v1.34h1.19c-.13.03-.23.1-.31.2ZM183.67,27.44h1.66v-4.31c.08-.15.18-.28.33-.38.14-.1.3-.18.48-.23s.36-.07.55-.07c.13,0,.26,0,.4.02.14.01.28.04.42.08v-1.74c-.07-.02-.14-.03-.23-.04s-.16-.01-.24-.01c-.3,0-.56.06-.78.19-.22.13-.41.3-.56.51-.15.21-.27.46-.36.74-.05.16-.07.34-.1.51l-.11-1.81h-1.46v6.55ZM191.48,27.44h1.63v-4.28c0-.47-.07-.86-.21-1.17-.14-.31-.33-.55-.58-.73-.24-.18-.52-.3-.83-.38-.31-.07-.64-.11-.98-.11-.58,0-1.08.09-1.5.27-.43.18-.75.45-.97.82-.22.37-.3.84-.25,1.41h1.54c0-.32.04-.56.13-.73s.21-.28.38-.35c.17-.06.37-.1.61-.1.38,0,.65.1.81.29.16.19.24.5.24.94v.22c-.15.01-.34.03-.57.05-.23.02-.48.05-.75.08-.27.03-.52.08-.77.12-.36.08-.67.19-.95.34-.27.15-.49.35-.64.61-.15.25-.23.58-.23.97s.09.69.26.96.41.48.72.62c.31.15.65.22,1.03.22.59,0,1.03-.15,1.33-.45.3-.3.48-.68.56-1.12l-.02,1.5ZM191.23,25.93c-.14.13-.31.24-.51.31-.2.07-.4.11-.6.11-.16,0-.29-.03-.41-.1-.12-.06-.21-.16-.28-.28-.07-.12-.1-.26-.1-.43,0-.28.08-.49.25-.65.17-.15.47-.27.89-.36.14-.03.3-.06.49-.1.19-.03.36-.06.53-.08v1.12c-.04.17-.12.32-.27.45ZM194.15,25.93c.24.51.59.91,1.05,1.2.46.29,1.03.43,1.7.43.52,0,.99-.1,1.39-.29.4-.19.72-.46.94-.81.23-.35.33-.76.32-1.24h-1.58c0,.22-.04.41-.15.56-.1.15-.23.26-.39.33-.16.07-.31.1-.46.1-.5-.01-.88-.18-1.13-.52s-.38-.86-.38-1.57c0-.64.11-1.14.33-1.48.22-.34.57-.52,1.05-.52.18,0,.34.02.48.07.13.05.25.12.34.21.09.09.16.21.21.35.05.14.07.3.08.48h1.6c.02-.46-.06-.88-.26-1.25-.2-.37-.5-.67-.91-.88-.41-.22-.92-.32-1.53-.32s-1.16.13-1.61.4c-.46.27-.81.65-1.05,1.16-.25.5-.37,1.11-.37,1.81s.12,1.28.36,1.79ZM201.8,24.9l-.1-.99,2.32,3.53h2.06l-2.29-3.05-.46-.53.44-.52,2.09-2.45h-2.11l-1.08,1.52-.99,1.42.09-.94v-4.81h-1.63v9.35h1.63v-2.54ZM207.95,25.73c-.19-.2-.42-.29-.7-.29s-.51.1-.7.29c-.19.2-.29.45-.29.75s.1.57.29.76c.19.19.42.29.69.29s.52-.1.71-.29c.19-.19.28-.45.28-.76s-.1-.55-.28-.75ZM183.7,36.08c-.23-.13-.47-.24-.73-.32-.26-.08-.5-.15-.72-.21-.3-.09-.56-.18-.76-.26-.2-.08-.35-.18-.45-.29-.1-.11-.15-.25-.15-.41,0-.14.04-.26.11-.35s.17-.17.29-.22c.12-.05.27-.08.43-.08.14,0,.28.02.41.07.13.04.24.13.34.26.1.13.18.31.23.56h1.6c-.07-.53-.22-.96-.45-1.26-.23-.3-.53-.52-.89-.64-.36-.13-.76-.19-1.21-.19-.74,0-1.33.16-1.79.49-.46.32-.68.79-.68,1.41,0,.43.1.78.3,1.05.2.27.47.48.8.65.33.16.7.3,1.09.42.22.06.42.12.59.17.17.05.32.11.44.16.12.06.21.13.27.21.06.08.09.19.09.32,0,.17-.05.3-.14.4-.09.1-.22.16-.38.2-.16.04-.33.06-.51.06-.3,0-.55-.07-.74-.22-.19-.15-.32-.38-.36-.71h-1.6c.02.5.15.9.38,1.22.23.32.54.56.93.71.39.16.86.23,1.39.23.81,0,1.46-.18,1.94-.53.48-.35.72-.84.72-1.48,0-.36-.07-.65-.22-.87-.15-.23-.33-.41-.56-.54ZM188.75,32.71c-.46,0-.84.1-1.12.3-.29.2-.5.46-.65.78-.13.3-.22.62-.27.95v-.03s.1-1.87.1-1.87v-2.81h-1.63v9.35h1.66v-4.39c.12-.24.29-.45.5-.63.21-.17.45-.26.71-.26.37,0,.63.12.78.36s.22.63.22,1.18v3.74h1.66v-4.34c0-.79-.18-1.38-.53-1.77-.35-.39-.83-.58-1.43-.58ZM196.15,33.22c-.24-.18-.52-.3-.83-.38-.31-.07-.64-.11-.98-.11-.58,0-1.08.09-1.5.27-.43.18-.75.45-.97.82-.22.37-.3.84-.25,1.41h1.54c0-.32.04-.56.13-.73.08-.17.21-.28.38-.35.17-.06.37-.1.61-.1.38,0,.65.1.81.29.16.19.24.5.24.94v.22c-.15.01-.34.03-.57.05-.23.02-.48.05-.75.08-.27.03-.52.07-.77.12-.36.08-.67.19-.95.34-.27.15-.49.35-.64.61-.15.25-.23.58-.23.97s.09.69.26.96c.17.27.41.48.72.62.31.15.65.22,1.03.22.59,0,1.03-.15,1.33-.45.3-.3.48-.67.56-1.12l-.02,1.5h1.63v-4.28c0-.47-.07-.86-.21-1.17-.14-.31-.33-.55-.58-.73ZM195.32,37.44c-.04.17-.12.32-.27.45-.14.13-.31.24-.51.31-.2.07-.4.11-.6.11-.16,0-.29-.03-.41-.1-.12-.06-.21-.16-.28-.28-.07-.12-.1-.26-.1-.43,0-.28.08-.49.25-.65.17-.15.47-.27.89-.36.14-.03.3-.06.49-.1.19-.03.36-.06.53-.08v1.12ZM201.38,32.71c-.3,0-.56.06-.78.19-.22.13-.41.3-.56.51-.15.21-.27.46-.36.74-.05.16-.07.34-.1.51l-.11-1.81h-1.46v6.55h1.66v-4.31c.08-.15.18-.28.33-.38.14-.1.3-.18.48-.23s.36-.07.55-.07c.13,0,.26,0,.4.02.14.01.28.04.42.08v-1.74c-.07-.02-.14-.03-.23-.04-.08,0-.16-.01-.24-.01ZM206.62,33.07c-.42-.24-.94-.35-1.55-.35s-1.16.13-1.63.4c-.47.26-.84.65-1.1,1.15-.26.5-.39,1.12-.39,1.85s.12,1.33.37,1.83c.25.5.6.88,1.07,1.15s1.02.39,1.67.39c.52,0,.98-.08,1.38-.25.39-.17.71-.41.94-.73.23-.32.37-.69.41-1.13h-1.59c-.04.22-.16.41-.35.57-.19.16-.46.24-.82.24-.41,0-.75-.14-1-.42-.25-.28-.4-.72-.43-1.32h4.3c0-.13.02-.24.02-.34,0-.1,0-.2,0-.31,0-.67-.11-1.23-.33-1.68-.22-.45-.54-.8-.96-1.04ZM204.28,35.43c-.22,0-.39.04-.5.11-.11.08-.18.22-.22.43.01-.6.13-1.07.37-1.41.23-.33.59-.5,1.07-.5.44,0,.76.12.96.35.2.23.31.57.33,1.02h-2.02ZM209.09,37.39c-.28,0-.51.1-.7.29-.19.2-.29.45-.29.75s.1.56.29.76c.19.19.42.29.69.29s.52-.1.71-.29c.19-.19.28-.45.28-.76s-.1-.55-.28-.75c-.19-.2-.42-.29-.7-.29Z"/>
      </g>
      <g id="logomark.square.gradient">
        <path id="background" class="cls-1" d="M48,11.26v25.47c0,6.22-5.05,11.27-11.27,11.27H11.26c-6.22,0-11.26-5.05-11.26-11.27V11.26C0,5.04,5.04,0,11.26,0h25.47c3.32,0,6.3,1.43,8.37,3.72.47.52.89,1.08,1.25,1.68.18.29.34.59.5.89.33.68.6,1.39.79,2.14.1.37.18.76.23,1.15.09.54.13,1.11.13,1.68Z"/>
        <g id="checkbox">
          <path class="cls-2" d="M12.92,18.67l-1.46,1.46,14.4,14.4,1.46-1.47-4.32-4.31L46.35,5.4c-.36-.6-.78-1.16-1.25-1.68l-23.56,23.56-8.62-8.61ZM28.01,32.37l1.47-1.46-2.16-2.16,20.32-20.32c-.19-.75-.46-1.46-.79-2.14l-22.46,22.46,3.62,3.62ZM13.62,17.97l7.92,7.92,1.47-1.47-7.92-7.92-1.47,1.47ZM47.87,9.58l-19.17,19.17,1.47,1.46,17.83-17.83v-1.12c0-.57-.04-1.14-.13-1.68ZM25.16,22.27l-7.92-7.92-1.47,1.47,7.92,7.92,1.47-1.47ZM41.32,35.12c0,3.42-2.78,6.2-6.2,6.2H12.88c-3.42,0-6.2-2.78-6.2-6.2V12.88c0-3.42,2.78-6.21,6.2-6.21h20.78v-2.07H12.88c-4.56,0-8.28,3.71-8.28,8.28v22.24c0,4.56,3.71,8.28,8.28,8.28h22.24c4.56,0,8.28-3.71,8.28-8.28v-3.51h-2.07v3.51Z"/>
        </g>
      </g>
    </g>
  </g>
</svg>