<?xml version="1.0" encoding="UTF-8"?>
<svg id="Layer_2" xmlns="http://www.w3.org/2000/svg" xmlns:xlink="http://www.w3.org/1999/xlink" viewBox="0 0 48 48">
  <defs>
    <style>
      .cls-1 {
        fill: url(#radial-gradient);
      }

      .cls-2 {
        fill: #fff;
      }
    </style>
    <radialGradient id="radial-gradient" cx="48.46" cy="-.95" fx="48.46" fy="-.95" r="64.84" gradientUnits="userSpaceOnUse">
      <stop offset="0" stop-color="#9f42c6"/>
      <stop offset=".27" stop-color="#a041c3"/>
      <stop offset=".42" stop-color="#a43ebb"/>
      <stop offset=".53" stop-color="#aa39ad"/>
      <stop offset=".64" stop-color="#b4339a"/>
      <stop offset=".73" stop-color="#c02b81"/>
      <stop offset=".82" stop-color="#cf2061"/>
      <stop offset=".9" stop-color="#e1143c"/>
      <stop offset=".97" stop-color="#f50613"/>
      <stop offset="1" stop-color="red"/>
    </radialGradient>
  </defs>
  <g id="_x2D_-production">
    <g id="logomark.square.gradient.lines">
      <path id="background" class="cls-1" d="M48,11.26v25.47c0,6.22-5.05,11.27-11.27,11.27H11.26C5.04,48,0,42.95,0,36.73V11.26C0,5.04,5.04,0,11.26,0h25.47c3.32,0,6.3,1.43,8.37,3.72.47.52.89,1.08,1.25,1.68.18.29.34.59.5.89.33.68.6,1.39.79,2.14.1.37.18.76.23,1.15.09.54.13,1.11.13,1.68Z"/>
      <g id="outline-checkmark-cut">
        <path class="cls-2" d="M47.87,9.58c-.05-.39-.13-.78-.23-1.15h0l-20.32,20.32,2.16,2.16-1.47,1.46-3.62-3.62L46.85,6.29c.06.12.1.25.16.37-.06-.12-.1-.25-.16-.37-.16-.3-.32-.6-.5-.89h0l-23.35,23.35,4.32,4.31-1.46,1.47-14.4-14.4,1.46-1.46,8.62,8.61L45.1,3.72C43.03,1.43,40.05,0,36.73,0H11.26C5.04,0,0,5.04,0,11.26v25.47c0,6.22,5.04,11.27,11.26,11.27h25.47c6.22,0,11.27-5.05,11.27-11.27V11.26c0-.57-.04-1.14-.13-1.68ZM21.54,25.9l-7.92-7.92,1.47-1.47,7.92,7.92-1.47,1.47ZM23.7,23.74l-7.92-7.92,1.47-1.47,7.92,7.92-1.47,1.47ZM43.39,35.12c0,4.56-3.71,8.28-8.28,8.28H12.88c-4.56,0-8.28-3.71-8.28-8.28V12.88c0-4.56,3.71-8.28,8.28-8.28h20.78v2.07H12.88c-3.42,0-6.2,2.78-6.2,6.21v22.24c0,3.42,2.78,6.2,6.2,6.2h22.24c3.42,0,6.2-2.78,6.2-6.2v-3.51h2.07v3.51ZM48,12.38l-17.83,17.83-1.47-1.46,19.17-19.17c.09.54.13,1.11.13,1.68v1.12Z"/>
      </g>
    </g>
  </g>
</svg>